<svg width="800" height="400" xmlns="http://www.w3.org/2000/svg">
  <!-- White background -->
  <rect width="800" height="400" fill="#FFFFFF"/>
  
  <!-- Symbol: Pure black version - for minimal applications -->
  <g transform="translate(200, 200)">
    <!-- Progressive arcs showing emergence -->
    <path d="M -60,0 A 60,60 0 1,1 60,0 A 60,60 0 1,1 -60,0" 
          stroke="#000000" 
          stroke-width="1.5" 
          fill="none" 
          stroke-dasharray="5,5"
          opacity="0.3"/>
    
    <path d="M -50,0 A 50,50 0 1,1 50,0 A 50,50 0 1,1 -50,0" 
          stroke="#000000" 
          stroke-width="2" 
          fill="none" 
          stroke-dasharray="8,4"
          opacity="0.5"/>
    
    <path d="M -40,0 A 40,40 0 1,1 40,0 A 40,40 0 1,1 -40,0" 
          stroke="#000000" 
          stroke-width="3" 
          fill="none" 
          opacity="0.8"/>
    
    <!-- Inner flowing line - the life movement -->
    <path d="M -25,0 Q 0,-25 25,0 T 0,25 T -25,0" 
          stroke="#000000" 
          stroke-width="2.5" 
          fill="none"/>
    
    <!-- Core -->
    <circle cx="0" cy="0" r="3" fill="#000000"/>
  </g>
  
  <!-- Text -->
  <text x="320" y="195" 
        font-family="'Helvetica Neue', Arial, sans-serif" 
        font-size="56" 
        font-weight="200" 
        letter-spacing="10" 
        fill="#000000">
    ΕΚΦΑΝΣΙΣ
  </text>
  
  <line x1="320" y1="210" x2="720" y2="210" 
        stroke="#000000" 
        stroke-width="0.5" 
        opacity="0.3"/>
  
  <text x="320" y="230" 
        font-family="'Helvetica Neue', Arial, sans-serif" 
        font-size="14" 
        font-weight="300" 
        letter-spacing="8" 
        fill="#000000">
    CREATIVE STUDIO
  </text>
</svg>